<svg viewBox="0 0 240 240" xmlns="http://www.w3.org/2000/svg" width="240" height="240">
  <rect width="240" height="240" fill="white"/>
  <line x1="80" y1="0" x2="80" y2="240" stroke="#e5e7eb" stroke-width="1.5"/>
  <line x1="160" y1="0" x2="160" y2="240" stroke="#e5e7eb" stroke-width="1.5"/>
  <line x1="0" y1="80" x2="240" y2="80" stroke="#e5e7eb" stroke-width="1.5"/>
  <line x1="0" y1="160" x2="240" y2="160" stroke="#e5e7eb" stroke-width="1.5"/>
  <!-- Row 1: arrow right, arrow down, arrow left -->
  <polygon points="20,40 60,40 60,32 72,40 60,48 60,40" fill="#111827" transform="translate(0,0)"/>
  <line x1="16" y1="40" x2="58" y2="40" stroke="#111827" stroke-width="3"/>
  <polygon points="100,20 140,20 140,12 152,20 140,28 140,20" fill="#111827" transform="rotate(90,120,40)"/>
  <line x1="120" y1="16" x2="120" y2="58" stroke="#111827" stroke-width="3"/>
  <polygon points="180,40 220,40 220,32 168,40 220,48 220,40" fill="#111827"/>
  <line x1="182" y1="40" x2="224" y2="40" stroke="#111827" stroke-width="3"/>
  <!-- Row 2 -->
  <line x1="40" y1="96" x2="40" y2="138" stroke="#111827" stroke-width="3"/>
  <polygon points="32,134 40,150 48,134" fill="#111827"/>
  <line x1="96" y1="120" x2="144" y2="120" stroke="#111827" stroke-width="3"/>
  <polygon points="140,112 156,120 140,128" fill="#111827"/>
  <line x1="200" y1="96" x2="200" y2="138" stroke="#111827" stroke-width="3"/>
  <polygon points="192,100 200,84 208,100" fill="#111827"/>
  <!-- Row 3 -->
  <line x1="96" y1="200" x2="144" y2="200" stroke="#111827" stroke-width="3"/>
  <polygon points="100,192 84,200 100,208" fill="#111827"/>
  <line x1="40" y1="176" x2="40" y2="218" stroke="#111827" stroke-width="3"/>
  <polygon points="32,180 40,164 48,180" fill="#111827"/>
  <text x="200" y="210" text-anchor="middle" font-size="36" font-family="serif" fill="#2563eb" font-weight="bold">?</text>
</svg>
